<?xml version="1.0" encoding="iso-8859-1"?>
<!-- Generator: Adobe Illustrator 16.0.0, SVG Export Plug-In . SVG Version: 6.00 Build 0)  -->
<!DOCTYPE svg PUBLIC "-//W3C//DTD SVG 1.1//EN" "http://www.w3.org/Graphics/SVG/1.1/DTD/svg11.dtd">
<svg version="1.1" id="Capa_1" xmlns="http://www.w3.org/2000/svg" xmlns:xlink="http://www.w3.org/1999/xlink" x="0px" y="0px"
	 width="31.984px" height="31.984px" viewBox="0 0 31.984 31.984" style="enable-background:new 0 0 31.984 31.984;"
	 xml:space="preserve">
<g>
	<path d="M25.949,15.091V4.192l-2.797-0.884V2.241L16.427,0l-5.594,1.587v0.965L8.147,3.279v10.168l-6.011,0.82v16.692l8.456,1.025
		l0.018-0.026l1.495-0.181v-4.725l2.363-0.139v4.577l1.608-0.202v-4.482l2.115-0.123v4.344l1.03-0.108l-0.012-8.249h4.011v7.495
		l1.471-0.181v-3.821l1.622-0.091v3.716l1.114-0.138v-3.651l1.479-0.083v3.555l0.942-0.115V15.597L25.949,15.091z M3.985,25.559
		l-1.229-0.051v-1.096l1.229,0.029V25.559z M3.985,23.627l-1.229-0.016v-1.096l1.229-0.006V23.627z M3.995,21.734l-1.229,0.02
		v-1.097l1.229-0.039V21.734z M3.995,19.865l-1.229,0.054v-1.097l1.229-0.073V19.865z M3.995,17.9l-1.229,0.091v-1.097l1.229-0.109
		V17.9z M5.942,25.607l-1.3-0.053v-1.128l1.3,0.031V25.607z M5.942,23.62l-1.3-0.017v-1.127l1.3-0.006V23.62z M5.953,21.672
		l-1.301,0.021v-1.129l1.301-0.041V21.672z M5.953,19.748l-1.301,0.059V18.68l1.301-0.08V19.748z M5.953,17.729l-1.301,0.096v-1.129
		l1.301-0.115V17.729z M7.92,25.699l-1.375-0.057v-1.158l1.375,0.033V25.699z M7.92,23.655l-1.375-0.019v-1.158l1.375-0.006V23.655z
		 M7.932,21.65l-1.375,0.021v-1.158l1.375-0.045V21.65z M7.932,19.673l-1.375,0.06v-1.157l1.375-0.083V19.673z M7.932,17.594
		l-1.375,0.102v-1.159l1.375-0.123V17.594z M9.244,4.706l1.57-0.388v2.407l-1.57,0.337V4.706z M9.243,8.485l1.57-0.307v2.407
		l-1.57,0.256V8.485z M10.053,25.792l-1.457-0.06V24.54l1.457,0.035V25.792z M10.053,23.688l-1.457-0.019v-1.192l1.457-0.007V23.688
		z M10.067,21.622l-1.458,0.022v-1.191l1.458-0.048V21.622z M10.067,19.585l-1.458,0.063v-1.193l1.458-0.088V19.585z M10.067,17.443
		L8.609,17.55v-1.192l1.458-0.131V17.443z M10.825,13.207l-0.373-0.048l-1.197,0.149v-0.967l1.57-0.224V13.207z M15.48,19.79v-1.203
		l1.286,0.078v1.181L15.48,19.79z M16.744,20.564v1.182l-1.288-0.02v-1.203L16.744,20.564z M16.755,16.734v1.182l-1.287-0.093
		v-1.202L16.755,16.734z M15.75,13.83l-1.783-0.226v-1.906l1.783-0.253V13.83z M13.955,3.568l1.782-0.439v2.566l-1.782,0.382V3.568z
		 M13.954,7.592l1.782-0.347v2.566L13.954,10.1V7.592z M11.597,4.13l1.675-0.414v2.487l-1.675,0.36V4.13z M11.597,8.031l1.675-0.327
		v2.487l-1.675,0.272V8.031z M11.341,16.232l1.443,0.129v1.25l-1.443-0.104V16.232z M11.38,18.346l1.441,0.088v1.248l-1.441-0.062
		V18.346z M12.834,20.379v1.249l-1.441-0.022v-1.273L12.834,20.379z M11.393,22.463l1.441,0.007v1.249l-1.441,0.02V22.463z
		 M12.864,25.764l-1.44,0.061V24.55l1.44-0.034V25.764z M13.283,13.518l-1.675-0.212v-1.294l1.675-0.238V13.518z M13.533,16.445
		l1.359,0.121v1.213l-1.359-0.098V16.445z M13.545,18.467l1.359,0.083v1.212l-1.359-0.059V18.467z M14.916,20.464v1.213
		l-1.358-0.021V20.42L14.916,20.464z M13.558,22.488l1.358,0.006v1.213l-1.358,0.018V22.488z M14.932,25.673l-1.357,0.058v-1.236
		l1.357-0.032V25.673z M15.455,22.538l1.289,0.005v1.182l-1.289,0.018V22.538z M16.775,25.611l-1.286,0.054v-1.202l1.286-0.031
		V25.611z M17.25,3.143l1.728,0.503v2.426l-1.728-0.45V3.143z M17.307,7.36l1.726,0.395v2.423l-1.726-0.341V7.36z M18.584,18.036
		l-1.218-0.088v-1.171l1.218,0.108V18.036z M18.595,18.766v1.147l-1.217-0.054v-1.168L18.595,18.766z M18.574,20.614v1.147
		l-1.217-0.019v-1.17L18.574,20.614z M18.574,22.538v1.147l-1.219,0.018v-1.17L18.574,22.538z M18.598,25.562l-1.218,0.051v-1.17
		l1.218-0.029V25.562z M19.045,14.224l-1.724-0.235v-2.476l1.724,0.287V14.224z M28.294,17.707l0.855,0.077v0.964l-0.855-0.062
		V17.707z M29.158,19.359v0.966l-0.855-0.038v-0.979L29.158,19.359z M28.287,20.885l0.855,0.028v0.965l-0.855-0.014V20.885z
		 M26.97,17.598l0.896,0.08v0.986L26.97,18.6V17.598z M27.873,19.291v0.986l-0.896-0.039v-1.002L27.873,19.291z M26.961,20.85
		l0.896,0.03v0.986l-0.896-0.015V20.85z M21.949,4.501l1.496,0.436v2.261l-1.496-0.392V4.501z M23.492,8.765v2.259l-1.494-0.297
		V8.423L23.492,8.765z M21.373,12.195v2.337l-1.603-0.219v-2.386L21.373,12.195z M21.361,10.631l-1.604-0.317V7.927l1.604,0.367
		V10.631z M19.705,3.864l1.604,0.467V6.67l-1.604-0.418V3.864z M23.26,21.816l-4.038-0.035v-1.135l4.038,0.102V21.816z
		 M23.297,20.136l-4.086-0.204v-1.134l4.086,0.271V20.136z M23.316,18.348l-4.104-0.267v-1.134l4.104,0.332V18.348z M23.503,14.793
		l-1.494-0.205v-2.303l1.494,0.249V14.793z M24.098,5.135l1.396,0.407v2.184l-1.396-0.364V5.135z M25.539,9.241v2.183l-1.396-0.277
		V8.922L25.539,9.241z M24.132,17.326l0.986,0.089v1.035l-0.986-0.072V17.326z M24.158,19.068l0.985,0.061v1.033l-0.985-0.043
		V19.068z M25.154,20.74v1.033l-0.985-0.018v-1.051L25.154,20.74z M24.167,22.466l0.984,0.007v1.032l-0.984,0.013V22.466z
		 M25.172,25.199l-0.984,0.039v-1.051l0.984-0.022V25.199z M25.549,15.066l-1.394-0.191v-2.224l1.394,0.232V15.066z M25.632,17.475
		l0.938,0.084v1.01L25.632,18.5V17.475z M25.641,19.15l0.938,0.059v1.009l-0.938-0.041V19.15z M26.587,20.802v1.011l-0.938-0.018
		V20.77L26.587,20.802z M25.65,22.486l0.938,0.006v1.009l-0.938,0.011V22.486z M26.598,25.137l-0.938,0.038V24.15l0.938-0.022
		V25.137z M26.96,22.527l0.896,0.005v0.987l-0.896,0.012V22.527z M27.879,25.098l-0.896,0.036v-1.002l0.896-0.021V25.098z
		 M28.285,22.523l0.856,0.004v0.966l-0.856,0.011V22.523z M29.16,25.066l-0.855,0.035v-0.979l0.855-0.02V25.066z"/>
</g>
<g>
</g>
<g>
</g>
<g>
</g>
<g>
</g>
<g>
</g>
<g>
</g>
<g>
</g>
<g>
</g>
<g>
</g>
<g>
</g>
<g>
</g>
<g>
</g>
<g>
</g>
<g>
</g>
<g>
</g>
</svg>
