<?xml version='1.0' encoding='utf-8'?>
<!DOCTYPE svg PUBLIC '-//W3C//DTD SVG 1.1//EN' 'http://www.w3.org/Graphics/SVG/1.1/DTD/svg11.dtd'>
<svg version="1.1" xmlns="http://www.w3.org/2000/svg" viewBox="0 0 512 512" xmlns:xlink="http://www.w3.org/1999/xlink" enable-background="new 0 0 512 512">
  <g>
    <g>
      <path d="M392.2,116.3l-76,119.9v144.9h-51.7v-61.5h-53.6L99.7,11L36.3,30.8l3.2,9.1v136.8C23.7,182,11,197.6,11,216.4    c0,21.9,18,40.7,39.1,40.7c21.1,0,39.1-18.8,39.1-40.7H68c0,11.5-8.4,20.9-18,20.9c-9.5,0-18-9.4-18-20.9c0-11.5,7.4-20.9,18-20.9    h10.6v-94.8l80.3,231v49.3H75.4V501H501V116.3H392.2z M244.4,339.4v41.7H162v-41.7H244.4z M87,36l101.4,283.6h-30.6l-95-275.2    L87,36z M480.9,480.1H96.5V402h384.4V480.1z M336.3,241.4l67.6-105.3h76v239.8H336.3V241.4z"/>
      <path d="m369,216.4v35.4h95v-99h-52.8l-42.2,63.6zm75-43.8v58.4h-53.9v-8.3l32.7-50h21.2z"/>
    </g>
  </g>
</svg>
