<?xml version="1.0" encoding="iso-8859-1"?>
<!-- Generator: Adobe Illustrator 19.0.0, SVG Export Plug-In . SVG Version: 6.00 Build 0)  -->
<svg version="1.1" id="Capa_1" xmlns="http://www.w3.org/2000/svg" xmlns:xlink="http://www.w3.org/1999/xlink" x="0px" y="0px"
	 viewBox="0 0 64 64" style="enable-background:new 0 0 64 64;" xml:space="preserve">
<g>
	<path d="M63,34.294V34h-0.093c-0.683-2.133-1.668-4.132-2.907-5.944V28h-0.04c-1.605-2.333-3.627-4.356-5.96-5.96V22h-0.056
		c-3.69-2.522-8.147-4-12.944-4s-9.254,1.478-12.944,4H28v0.04c-2.333,1.604-4.356,3.627-5.96,5.96H22v0.056
		c-2.346,3.432-3.785,7.529-3.975,11.944H12C5.383,40,0,45.383,0,52v7v4c0,0.553,0.448,1,1,1h9h9h9h9h9h9h8c0.552,0,1-0.447,1-1v-4
		V41C64,38.668,63.648,36.416,63,34.294z M55,58h-2v-4h9v4H55z M46,58h-4v-4h9v4H46z M37,58h-3v-4h6v4H37z M34.659,30H40v4h-6.762
		C33.624,32.635,34.098,31.299,34.659,30z M31.163,34h-9.938c0.5-1.409,1.145-2.747,1.92-4h9.344
		C31.965,31.303,31.524,32.638,31.163,34z M62,52h-9v-4h9V52z M33.3,48H40v4h-6C34,50.596,33.745,49.253,33.3,48z M42,48h9v4h-9V48z
		 M51,43.866V46h-9v-4h8.943C50.978,42.62,51,43.242,51,43.866z M62,46h-9v-2.134c0-0.624-0.018-1.246-0.052-1.866H62V46z
		 M61.949,40h-9.173c-0.153-1.35-0.39-2.685-0.698-4h9.295C61.691,37.292,61.884,38.628,61.949,40z M50.76,40H42v-4h8.023
		C50.35,37.313,50.597,38.648,50.76,40z M42,34v-4h5.886c0.61,1.298,1.141,2.632,1.576,4H42z M42,28v-4h2.232
		c0.976,1.271,1.856,2.607,2.632,4H42z M42,22v-0.61c0.192,0.202,0.386,0.403,0.572,0.61H42z M40,22h-0.399
		c0.131-0.156,0.265-0.309,0.399-0.462V22z M40,24v4h-4.395c0.715-1.386,1.532-2.721,2.447-4H40z M40,36v4h-7.866
		c0.119-1.353,0.324-2.687,0.606-4H40z M40,42v4h-7.624c-0.121-0.209-0.243-0.418-0.376-0.619V42.92c0-0.308,0.014-0.613,0.022-0.92
		H40z M30,42.92v0.161c-0.435-0.391-0.892-0.757-1.381-1.081h1.403C30.014,42.307,30,42.612,30,42.92z M51.546,34
		c-0.406-1.362-0.888-2.7-1.457-4h8.765c0.775,1.253,1.42,2.591,1.92,4H51.546z M57.461,28h-8.326c-0.714-1.384-1.523-2.72-2.42-4
		h6.564C54.85,25.138,56.258,26.481,57.461,28z M45.206,22c-0.509-0.625-1.045-1.23-1.6-1.821c2.221,0.277,4.329,0.904,6.28,1.821
		H45.206z M38.552,20.155c-0.526,0.6-1.031,1.215-1.511,1.845h-4.927C34.112,21.062,36.273,20.421,38.552,20.155z M28.721,24h6.903
		c-0.843,1.286-1.599,2.621-2.259,4H24.54C25.742,26.481,27.15,25.138,28.721,24z M20.627,36H30.69
		c-0.265,1.314-0.449,2.649-0.561,4H22h-1h-0.949C20.116,38.628,20.309,37.292,20.627,36z M21,42h1c5.514,0,10,4.486,10,10v6h-4h-4
		v-6c0-4.172-2.142-7.849-5.381-10H21z M10,58H8v-6c0-2.206,1.794-4,4-4s4,1.794,4,4v6H10z M2,58v-4h4v4H2z M16.885,48.529
		l2.853-2.853C21.15,47.401,22,49.603,22,52h-4C18,50.706,17.584,49.51,16.885,48.529z M15.471,47.115
		C14.749,46.6,13.909,46.244,13,46.09v-4.04c2.008,0.2,3.842,0.998,5.324,2.211L15.471,47.115z M11,46.09
		c-0.909,0.153-1.749,0.51-2.471,1.025l-2.853-2.853c1.482-1.213,3.316-2.011,5.324-2.211V46.09z M19,58h-1v-4h4v4h-2H19z
		 M4.262,45.676l2.853,2.853C6.416,49.51,6,50.706,6,52H2C2,49.603,2.85,47.401,4.262,45.676z M2,60h5h2v2H2V60z M11,60h6h1v2h-7V60
		z M20,60h3h4v2h-7V60z M29,60h7v2h-7V60z M38,60h7v2h-7V60z M47,60h7v2h-7V60z M62,62h-6v-2h6V62z"/>
	<rect x="11" y="54" width="2" height="2"/>
	<rect x="11" y="50" width="2" height="2"/>
	<polygon points="1.464,6.121 2.878,7.535 4,6.414 4,8 6,8 6,6.414 7.122,7.535 8.536,6.121 7.414,5 9,5 9,3 7.414,3 8.536,1.879 
		7.122,0.465 6,1.586 6,0 4,0 4,1.586 2.878,0.465 1.464,1.879 2.586,3 1,3 1,5 2.586,5 	"/>
	<polygon points="12.464,6.121 13.878,7.535 15,6.414 15,8 17,8 17,6.414 18.122,7.535 19.536,6.121 18.414,5 20,5 20,3 18.414,3 
		19.536,1.879 18.122,0.465 17,1.586 17,0 15,0 15,1.586 13.878,0.465 12.464,1.879 13.586,3 12,3 12,5 13.586,5 	"/>
	<polygon points="23.464,6.121 24.878,7.535 26,6.414 26,8 28,8 28,6.414 29.122,7.535 30.536,6.121 29.414,5 31,5 31,3 29.414,3 
		30.536,1.879 29.122,0.465 28,1.586 28,0 26,0 26,1.586 24.878,0.465 23.464,1.879 24.586,3 23,3 23,5 24.586,5 	"/>
	<polygon points="33.464,6.121 34.878,7.535 36,6.414 36,8 38,8 38,6.414 39.122,7.535 40.536,6.121 39.414,5 41,5 41,3 39.414,3 
		40.536,1.879 39.122,0.465 38,1.586 38,0 36,0 36,1.586 34.878,0.465 33.464,1.879 34.586,3 33,3 33,5 34.586,5 	"/>
	<polygon points="44.464,6.121 45.878,7.535 47,6.414 47,8 49,8 49,6.414 50.122,7.535 51.536,6.121 50.414,5 52,5 52,3 50.414,3 
		51.536,1.879 50.122,0.465 49,1.586 49,0 47,0 47,1.586 45.878,0.465 44.464,1.879 45.586,3 44,3 44,5 45.586,5 	"/>
	<polygon points="55.464,6.121 56.878,7.535 58,6.414 58,8 60,8 60,6.414 61.122,7.535 62.536,6.121 61.414,5 63,5 63,3 61.414,3 
		62.536,1.879 61.122,0.465 60,1.586 60,0 58,0 58,1.586 56.878,0.465 55.464,1.879 56.586,3 55,3 55,5 56.586,5 	"/>
	<polygon points="55.464,16.121 56.878,17.535 58,16.414 58,18 60,18 60,16.414 61.122,17.535 62.536,16.121 61.414,15 63,15 63,13 
		61.414,13 62.536,11.879 61.122,10.465 60,11.586 60,10 58,10 58,11.586 56.878,10.465 55.464,11.879 56.586,13 55,13 55,15 
		56.586,15 	"/>
	<polygon points="0.464,16.121 1.878,17.535 3,16.414 3,18 5,18 5,16.414 6.122,17.535 7.536,16.121 6.414,15 8,15 8,13 6.414,13 
		7.536,11.879 6.122,10.465 5,11.586 5,10 3,10 3,11.586 1.878,10.465 0.464,11.879 1.586,13 0,13 0,15 1.586,15 	"/>
	<polygon points="11.464,16.121 12.878,17.535 14,16.414 14,18 16,18 16,16.414 17.122,17.535 18.536,16.121 17.414,15 19,15 19,13 
		17.414,13 18.536,11.879 17.122,10.465 16,11.586 16,10 14,10 14,11.586 12.878,10.465 11.464,11.879 12.586,13 11,13 11,15 
		12.586,15 	"/>
	<polygon points="0.464,27.121 1.878,28.535 3,27.414 3,29 5,29 5,27.414 6.122,28.535 7.536,27.121 6.414,26 8,26 8,24 6.414,24 
		7.536,22.879 6.122,21.465 5,22.586 5,21 3,21 3,22.586 1.878,21.465 0.464,22.879 1.586,24 0,24 0,26 1.586,26 	"/>
	<polygon points="11.464,27.121 12.878,28.535 14,27.414 14,29 16,29 16,27.414 17.122,28.535 18.536,27.121 17.414,26 19,26 19,24 
		17.414,24 18.536,22.879 17.122,21.465 16,22.586 16,21 14,21 14,22.586 12.878,21.465 11.464,22.879 12.586,24 11,24 11,26 
		12.586,26 	"/>
	<polygon points="22.464,16.121 23.878,17.535 25,16.414 25,18 27,18 27,16.414 28.122,17.535 29.536,16.121 28.414,15 30,15 30,13 
		28.414,13 29.536,11.879 28.122,10.465 27,11.586 27,10 25,10 25,11.586 23.878,10.465 22.464,11.879 23.586,13 22,13 22,15 
		23.586,15 	"/>
</g>
<g>
</g>
<g>
</g>
<g>
</g>
<g>
</g>
<g>
</g>
<g>
</g>
<g>
</g>
<g>
</g>
<g>
</g>
<g>
</g>
<g>
</g>
<g>
</g>
<g>
</g>
<g>
</g>
<g>
</g>
</svg>
