<?xml version="1.0" encoding="iso-8859-1"?>
<!-- Generator: Adobe Illustrator 19.0.0, SVG Export Plug-In . SVG Version: 6.00 Build 0)  -->
<svg version="1.1" id="Capa_1" xmlns="http://www.w3.org/2000/svg" xmlns:xlink="http://www.w3.org/1999/xlink" x="0px" y="0px"
	 viewBox="0 0 463 463" style="enable-background:new 0 0 463 463;" xml:space="preserve">
<g>
	<path d="M55.5,267h40c4.142,0,7.5-3.358,7.5-7.5s-3.358-7.5-7.5-7.5h-40c-4.142,0-7.5,3.358-7.5,7.5S51.358,267,55.5,267z"/>
	<path d="M103,283.5c0-4.142-3.358-7.5-7.5-7.5h-40c-4.142,0-7.5,3.358-7.5,7.5s3.358,7.5,7.5,7.5h40
		C99.642,291,103,287.642,103,283.5z"/>
	<path d="M455.566,308.014L382.059,84.887c-0.014-0.042-0.033-0.08-0.047-0.122C379.109,75.08,370.118,68,359.5,68
		c-3.001,0-5.869,0.572-8.51,1.601c-0.22,0.07-133.821,56.411-133.93,56.463c-6.459,2.661-11.685,7.712-14.58,14.046
		c-0.045,0.094-0.097,0.183-0.138,0.279L174.65,204H159.5c-4.142,0-7.5,3.358-7.5,7.5V228H39.5c-8.547,0-15.5,6.953-15.5,15.5v56
		c0,8.547,6.953,15.5,15.5,15.5H56v17H31.5C14.131,332,0,346.131,0,363.5S14.131,395,31.5,395h208c17.369,0,31.5-14.131,31.5-31.5
		S256.869,332,239.5,332H215v-17h24.5c2.31,0,4.49-1.064,5.912-2.884s1.925-4.194,1.364-6.435l-16.777-67.108l19.643-67.554
		l96.493-49.574l75.2,188.805L380.16,356H367.5c-4.142,0-7.5,3.358-7.5,7.5s3.358,7.5,7.5,7.5h88c4.142,0,7.5-3.358,7.5-7.5v-38.305
		C463,318.493,460.235,312.354,455.566,308.014z M31.5,380c-9.098,0-16.5-7.402-16.5-16.5S22.402,347,31.5,347S48,354.402,48,363.5
		S40.598,380,31.5,380z M239.5,347c9.098,0,16.5,7.402,16.5,16.5s-7.402,16.5-16.5,16.5s-16.5-7.402-16.5-16.5
		S230.402,347,239.5,347z M167,219h36.008c3.907,0,7.298,2.647,8.246,6.438L221.894,268H167V219z M159.5,315H200v17H71v-17H159.5z
		 M39.5,300c-0.276,0-0.5-0.224-0.5-0.5v-56c0-0.276,0.224-0.5,0.5-0.5H152v57H39.5z M212.681,380H58.319
		C61.284,375.198,63,369.546,63,363.5s-1.716-11.698-4.681-16.5h154.363c-2.965,4.802-4.681,10.454-4.681,16.5
		S209.716,375.198,212.681,380z M167,300v-17h58.644l4.25,17H167z M221.727,213.299c-4.337-5.722-11.176-9.299-18.719-9.299h-11.999
		l15.256-35.046C211.313,175.084,218.958,179,227.5,179c1.462,0,2.897-0.117,4.298-0.338L221.727,213.299z M227.5,164
		c-6.893,0-12.5-5.607-12.5-12.5s5.607-12.5,12.5-12.5s12.5,5.607,12.5,12.5S234.393,164,227.5,164z M254.998,151.404
		c-0.029-8.395-3.84-15.912-9.813-20.941l90.832-38.306c0.084,3.026,0.736,5.911,1.864,8.549c0.012,0.031,0.02,0.063,0.032,0.094
		l2.647,6.645L254.998,151.404z M351,91.5c0-4.687,3.813-8.5,8.5-8.5s8.5,3.813,8.5,8.5s-3.813,8.5-8.5,8.5S351,96.187,351,91.5z
		 M359.712,114.995c5.578-0.05,10.698-2.049,14.708-5.353l63.285,192.099c-1.15,0.085-2.289,0.257-3.41,0.51L359.712,114.995z
		 M448,356h-47.66l32.842-36.491c3.625-4.029,8.082-2.74,9.363-2.25c1.279,0.491,5.455,2.515,5.455,7.936V356z"/>
	<path d="M79.5,371h112c4.142,0,7.5-3.358,7.5-7.5s-3.358-7.5-7.5-7.5h-112c-4.142,0-7.5,3.358-7.5,7.5S75.358,371,79.5,371z"/>
</g>
<g>
</g>
<g>
</g>
<g>
</g>
<g>
</g>
<g>
</g>
<g>
</g>
<g>
</g>
<g>
</g>
<g>
</g>
<g>
</g>
<g>
</g>
<g>
</g>
<g>
</g>
<g>
</g>
<g>
</g>
</svg>
